<svg id="logo-olshevskyi" data-name="logo-olshevskyi" xmlns="http://www.w3.org/2000/svg" viewBox="0 0 218.39 104.59"><defs><style>.cls-1{fill:#1d1d1b;}.cls-2{fill:#fff;}.cls-3{font-size:47px;fill:#3c3c3b;font-family:Arvo, serif;}.cls-4{font-size:25px;font-family:Arvo, serif;}.cls-5{letter-spacing:-0.01em;}</style></defs><title>yurii olshevskyi LOGO</title><path class="cls-1" d="M224.31,440.76l-26-26a1,1,0,0,1,0-1.39l44.07-44.07a1,1,0,0,1,1.39,0l4.85,4.85a1,1,0,0,1,0,1.39l-38.41,38.41a.16.16,0,0,0,0,.23l14.7,14.7a.16.16,0,0,0,.23,0l14.7-14.7a.16.16,0,0,0,0-.23L227.87,402a1,1,0,0,1,0-1.39l4.85-4.85a1,1,0,0,1,1.39,0l17.61,17.61a1,1,0,0,1,0,1.39l-26,26A1,1,0,0,1,224.31,440.76Z" transform="translate(-198 -366.65)"/><line class="cls-2" x1="5.83" y1="5.06" x2="21.71" y2="20.94"/><rect class="cls-1" x="207.36" y="368.42" width="8.82" height="22.45" rx="0.98" ry="0.98" transform="translate(-404.43 -105.71) rotate(-45)"/><text class="cls-3" transform="translate(63 38.35)">Y U R I I <tspan class="cls-4"><tspan x="0" y="30">OLSHE</tspan><tspan class="cls-5" x="77.77" y="30">V</tspan><tspan x="92.2" y="30">SKYII</tspan></tspan></text></svg>