<svg id="Шар_1" data-name="Шар 1" xmlns="http://www.w3.org/2000/svg" viewBox="0 0 269.79 125.67"><defs><style>.cls-1{fill:#ffffff;}</style></defs><title>logo-olshevskyi</title><path class="cls-1" d="M158.31,326.24l11.82,11.81-11.82,11.82a30.37,30.37,0,0,0-8.89,21.51l0,7.69,52.76-52.76a30.38,30.38,0,0,0,8.89-21.47V297.1L180.24,328l-30.82-30.82v7.66A30.34,30.34,0,0,0,158.31,326.24Z" transform="translate(-144.42 -297.1)"/><polygon class="cls-1" points="66.68 84.73 66.65 61.68 47.38 42.41 37.27 52.52 52.35 67.6 52.35 88.86 35.82 105.39 19.34 88.91 19.34 70.46 5.02 84.77 0 89.8 35.87 125.67 71.75 89.8 66.68 84.73"/><path class="cls-1" d="M239,356.15v-16.8a33.41,33.41,0,0,1-4.75-4.59,25.39,25.39,0,0,1-3.12-4.2q-.82-1.53-.82-6.27V314.15H239v10.14a11.83,11.83,0,0,0,.54,4.29,14.39,14.39,0,0,0,1.88,3q1.37,1.74,1.92,1.74c.38,0,1-.59,2-1.77a15.3,15.3,0,0,0,1.89-2.91,12.45,12.45,0,0,0,.5-4.32V314.15h8.69v10.14q0,4.8-.82,6.3a25.72,25.72,0,0,1-3.15,4.17,37.42,37.42,0,0,1-4.72,4.59v16.8Z" transform="translate(-144.42 -297.1)"/><path class="cls-1" d="M304.14,314.15v24.54q0,6.3-.69,7.86-1.06,2.46-5.57,6.39t-6.77,3.93q-2.26,0-6.77-3.93t-5.57-6.39q-.7-1.56-.7-7.86V330a22.43,22.43,0,0,0-.72-6.84,16.23,16.23,0,0,0-3.05-4.68l7.55-5c1.35.84,2.5,2.47,3.47,4.89a23.49,23.49,0,0,1,1.44,8.67v11.7q0,4.92.51,6a8.15,8.15,0,0,0,1.73,2.34,2.42,2.42,0,0,0,4.22,0,8.34,8.34,0,0,0,1.73-2.34c.34-.74.5-2.75.5-6V314.15Z" transform="translate(-144.42 -297.1)"/><path class="cls-1" d="M333.74,316.73q5-3.3,6.86-3.3t5.64,3.15A33.09,33.09,0,0,1,351,321a5.6,5.6,0,0,1,.95,3.39q0,4.08-.69,4.86a29.54,29.54,0,0,1-4.1,4.5q3.84,3.48,4.79,5.34a41.89,41.89,0,0,1,1.07,7.65q.57,6.39.57,9.39h-9.45q0-2.7-.5-8.46t-1.11-7a9.4,9.4,0,0,0-1.41-2.1H335.5v17.52h-8.69V329.87a21.49,21.49,0,0,0-.72-6.75,17.62,17.62,0,0,0-3-4.65l7.55-5A9.06,9.06,0,0,1,333.74,316.73ZM335.5,327v4.62H338a3.85,3.85,0,0,0,2.27-1.32A7.81,7.81,0,0,0,342,328a4.84,4.84,0,0,0,.41-2,4,4,0,0,0-.41-1.83,13,13,0,0,0-1.16-1.83q-.76-1-1.26-1a15.48,15.48,0,0,0-4.29.78C335.44,323.75,335.5,325.35,335.5,327Z" transform="translate(-144.42 -297.1)"/><path class="cls-1" d="M374.67,356.15v-42h8.69v42Z" transform="translate(-144.42 -297.1)"/><path class="cls-1" d="M405.53,356.15v-42h8.68v42Z" transform="translate(-144.42 -297.1)"/><path class="cls-1" d="M240.3,401.48c-1.72,1.58-3,2.36-3.87,2.36s-2.16-.78-3.87-2.36a12.8,12.8,0,0,1-3.19-3.83,16.5,16.5,0,0,1-.39-4.72v-4.24a16.5,16.5,0,0,1,.39-4.72,12.8,12.8,0,0,1,3.19-3.83c1.71-1.58,3-2.36,3.87-2.36s2.15.78,3.87,2.36a12.72,12.72,0,0,1,3.18,3.83,16,16,0,0,1,.4,4.72v4.24a16,16,0,0,1-.4,4.72A12.72,12.72,0,0,1,240.3,401.48ZM235.22,398a1.36,1.36,0,0,0,2.41,0,4.94,4.94,0,0,0,1-1.41,12.42,12.42,0,0,0,.29-3.62v-4.24a12.42,12.42,0,0,0-.29-3.62,4.94,4.94,0,0,0-1-1.41,1.36,1.36,0,0,0-2.41,0,4.94,4.94,0,0,0-1,1.41,12.81,12.81,0,0,0-.29,3.62v4.24a12.81,12.81,0,0,0,.29,3.62A4.94,4.94,0,0,0,235.22,398Z" transform="translate(-144.42 -297.1)"/><path class="cls-1" d="M261.16,399.09v4.32H248v-25.2h5v20.88Z" transform="translate(-144.42 -297.1)"/><path class="cls-1" d="M279.63,393.26a5.62,5.62,0,0,1,.39,2.57,6.25,6.25,0,0,1-.79,3.26,16.24,16.24,0,0,1-3.06,2.9c-1.56,1.23-2.71,1.85-3.45,1.85a7.63,7.63,0,0,1-4.54-2.07,9.09,9.09,0,0,1-3.24-4.55l4-2.74a8.86,8.86,0,0,0,1.83,3.1c.84.93,1.44,1.4,1.78,1.4a2.25,2.25,0,0,0,1.12-.34,3.8,3.8,0,0,0,.92-.7,2.87,2.87,0,0,0,.47-1.8c0-.82-.2-1.32-.58-1.51a14.64,14.64,0,0,0-2.79-1.62,34,34,0,0,1-3.83-2.18,5.79,5.79,0,0,1-2.25-2.29,7.21,7.21,0,0,1-.49-2.9,6,6,0,0,1,.79-3.11,16.24,16.24,0,0,1,3.06-2.9c1.56-1.23,2.71-1.85,3.46-1.85a7.61,7.61,0,0,1,4.53,2.07,9,9,0,0,1,3.24,4.55l-4,2.77a9.27,9.27,0,0,0-1.84-3.11c-.84-.95-1.43-1.42-1.78-1.42a2.46,2.46,0,0,0-1.13.32,3.08,3.08,0,0,0-1,.81,2.73,2.73,0,0,0-.38,1.66,1.61,1.61,0,0,0,.72,1.56,15.78,15.78,0,0,0,2.63,1.59Q278.69,391.46,279.63,393.26Z" transform="translate(-144.42 -297.1)"/><path class="cls-1" d="M296.08,403.41V391.89h-5v11.52h-5V388a14.75,14.75,0,0,0-.41-4.26A11,11,0,0,0,284,380.8l4.32-3a5.8,5.8,0,0,1,2,2.79,12.83,12.83,0,0,1,.83,4.91v2.09h5v-9.36h5v25.2Z" transform="translate(-144.42 -297.1)"/><path class="cls-1" d="M312.32,388.07h6.44v4.36h-6.44v6.62h8.6v4.36H307.35V381.23l5-3.45h8v4.39h-6.69l-1.33.94Z" transform="translate(-144.42 -297.1)"/><path class="cls-1" d="M326.14,378.21h5v14a15.3,15.3,0,0,0,.23,3.05,6.86,6.86,0,0,0,1.06,2.23c.56.8,1,1.2,1.19,1.2s.64-.4,1.19-1.2a6.66,6.66,0,0,0,1.06-2.23,14.44,14.44,0,0,0,.24-3.05V388a14.35,14.35,0,0,0-.42-4.21,11.35,11.35,0,0,0-1.74-2.92l4.32-3.09a6,6,0,0,1,2,2.93,14.7,14.7,0,0,1,.82,5.2v5.94a16.36,16.36,0,0,1-.54,4.61,13.49,13.49,0,0,1-3.07,4.59c-1.7,1.86-3,2.79-3.84,2.79s-2.14-.93-3.83-2.79a13.55,13.55,0,0,1-3.08-4.59,16.36,16.36,0,0,1-.54-4.61Z" transform="translate(-144.42 -297.1)"/><path class="cls-1" d="M360.41,393.26a5.59,5.59,0,0,1,.4,2.57,6.25,6.25,0,0,1-.8,3.26A16.42,16.42,0,0,1,357,402c-1.57,1.23-2.72,1.85-3.46,1.85a7.65,7.65,0,0,1-4.54-2.07,9.09,9.09,0,0,1-3.24-4.55l4-2.74a8.86,8.86,0,0,0,1.83,3.1c.84.93,1.44,1.4,1.79,1.4a2.22,2.22,0,0,0,1.11-.34,3.61,3.61,0,0,0,.92-.7,2.87,2.87,0,0,0,.47-1.8c0-.82-.19-1.32-.58-1.51a14.64,14.64,0,0,0-2.79-1.62,34,34,0,0,1-3.83-2.18,5.79,5.79,0,0,1-2.25-2.29,7.21,7.21,0,0,1-.49-2.9,6,6,0,0,1,.8-3.11,15.78,15.78,0,0,1,3.05-2.9c1.56-1.23,2.72-1.85,3.46-1.85a7.65,7.65,0,0,1,4.54,2.07A9.09,9.09,0,0,1,361,384.4l-4,2.77a9.08,9.08,0,0,0-1.83-3.11c-.85-.95-1.44-1.42-1.79-1.42a2.5,2.5,0,0,0-1.13.32,3.08,3.08,0,0,0-1,.81,2.8,2.8,0,0,0-.38,1.66,1.61,1.61,0,0,0,.72,1.56,15.78,15.78,0,0,0,2.63,1.59C357.72,390.5,359.79,392.06,360.41,393.26Z" transform="translate(-144.42 -297.1)"/><path class="cls-1" d="M371.9,385.48v2.09H373a1.86,1.86,0,0,0,1.27-.67,5.92,5.92,0,0,0,1-1.26,12.63,12.63,0,0,0,.7-3.42,36.57,36.57,0,0,0,.36-4h5a37.73,37.73,0,0,1-.39,4.39,16.9,16.9,0,0,1-.73,3.67,11.7,11.7,0,0,1-2.73,3.21,13.54,13.54,0,0,1,3.31,3.71,20.1,20.1,0,0,1,.74,4.55q.38,3.79.38,5.67h-5c0-1.13-.11-2.9-.34-5.31a17,17,0,0,0-.67-4.19c-.74-1.35-1.62-2-2.63-2H371.9v11.52h-5V387.64a13.28,13.28,0,0,0-.42-4.05,10.58,10.58,0,0,0-1.74-2.79l4.32-3a5.87,5.87,0,0,1,2,2.79A13,13,0,0,1,371.9,385.48Z" transform="translate(-144.42 -297.1)"/><path class="cls-1" d="M392.56,403.41V393.33a20.25,20.25,0,0,1-2.72-2.75,15.43,15.43,0,0,1-1.78-2.52,9.81,9.81,0,0,1-.47-3.77v-6.08h5v6.08a7.33,7.33,0,0,0,.31,2.58,8.67,8.67,0,0,0,1.08,1.78c.51.7.88,1,1.09,1s.59-.35,1.12-1.06a9,9,0,0,0,1.08-1.74,7.79,7.79,0,0,0,.29-2.6v-6.08h5v6.08a9.73,9.73,0,0,1-.47,3.78,17.07,17.07,0,0,1-1.8,2.51,22.78,22.78,0,0,1-2.7,2.75v10.08Z" transform="translate(-144.42 -297.1)"/><path class="cls-1" d="M408.47,403.41v-25.2h5v25.2Z" transform="translate(-144.42 -297.1)"/></svg>